<svg xmlns="http://www.w3.org/2000/svg" xmlns:xlink="http://www.w3.org/1999/xlink" id="b" viewBox="25.44 116.16 214.36 174.96"><defs><style>.f{fill:#fff;}.g{clip-path:url(#d);}.h{fill:url(#e);}.i{fill:none;}</style><clipPath id="d"><path class="i" d="M25.44,116.16h14.4v75.84h90.72V116.16h14.64v174.96h-14.64v-86.64H39.84v86.64h-14.4V116.16Zm152.79,57.82c0-24.35,15.95-39.32,32.74-39.32,18.05,0,28.82,12.87,28.82,34.7,0,1.96-.14,4.06-.42,6.02h-52.89c.42,18.05,11.19,30.78,27.29,30.78,7.98,0,14.13-2.52,19.73-6.44l3.22,6.02c-6.02,3.78-13.01,7.28-23.65,7.28-19.31,0-34.84-14.55-34.84-39.04Zm54.01-5.18c0-18.05-8.12-27.15-21.27-27.15-12.03,0-22.95,10.07-24.49,27.15h45.75Z"/></clipPath><linearGradient id="e" x1="35.29" y1="106.31" x2="229.95" y2="300.97" gradientTransform="matrix(1, 0, 0, 1, 0, 0)" gradientUnits="userSpaceOnUse"><stop offset="0" stop-color="#3494e6"/><stop offset="1" stop-color="#ec6ead"/></linearGradient></defs><g id="c"><g class="g"><rect class="h" x="25.44" y="116.16" width="214.36" height="174.96"/></g></g></svg>